<?xml version="1.0" encoding="UTF-8" standalone="no"?>
<svg
   width="1280"
   height="640"
   viewBox="0 0 1280 640"
   version="1.1"
   xml:space="preserve"
   style="clip-rule:evenodd;fill-rule:evenodd;stroke-linejoin:round;stroke-miterlimit:1.5"
   id="svg1022"
   sodipodi:docname="icono_taquillas_github.svg"
   inkscape:export-filename="/home/alex/Dropbox/SPRING/mvc_taquillas/icono_taquillas.png"
   inkscape:export-xdpi="96"
   inkscape:export-ydpi="96"
   inkscape:version="1.1 (c4e8f9ed74, 2021-05-24)"
   xmlns:inkscape="http://www.inkscape.org/namespaces/inkscape"
   xmlns:sodipodi="http://sodipodi.sourceforge.net/DTD/sodipodi-0.dtd"
   xmlns="http://www.w3.org/2000/svg"
   xmlns:svg="http://www.w3.org/2000/svg"><defs
   id="defs1026" /><sodipodi:namedview
   id="namedview1024"
   pagecolor="#ffffff"
   bordercolor="#666666"
   borderopacity="1.0"
   inkscape:pageshadow="2"
   inkscape:pageopacity="0.0"
   inkscape:pagecheckerboard="0"
   showgrid="false"
   inkscape:zoom="1.1556848"
   inkscape:cx="379.86137"
   inkscape:cy="547.29458"
   inkscape:window-width="3840"
   inkscape:window-height="2043"
   inkscape:window-x="2400"
   inkscape:window-y="0"
   inkscape:window-maximized="1"
   inkscape:current-layer="svg1022"
   fit-margin-top="0"
   fit-margin-left="0"
   fit-margin-right="0"
   fit-margin-bottom="0" />
    <rect
   style="fill:#f9f9f9;stroke-width:4.18505"
   id="rect1190"
   width="1280"
   height="640"
   x="1.7388535e-05"
   y="0" /><g
   id="icono_taquillas"
   transform="matrix(5.0710525,0,0,4.1470652,-2556.7689,-558.05812)">
        <rect
   x="504.189"
   y="134.567"
   width="124.834"
   height="154.326"
   style="fill:none"
   id="rect942" />
        <clipPath
   id="_clip1">
            <rect
   x="504.189"
   y="134.567"
   width="124.834"
   height="154.326"
   id="rect944" />
        </clipPath>
        <g
   clip-path="url(#_clip1)"
   id="g1019">
            <g
   transform="matrix(0.326491,0,0,0.399235,501.542,131.402)"
   id="g949">
                <rect
   x="8.1059999"
   y="8.2259998"
   width="384.42801"
   height="385"
   style="fill:#ff554d"
   id="rect947" />
            </g>
            <g
   transform="matrix(0.326491,0,0,0.399235,501.542,131.402)"
   id="g953">
                <path
   d="M 8.106,204.414 H 392.535"
   style="fill:none;stroke:#a60700;stroke-width:6.9px"
   id="path951" />
            </g>
            <g
   transform="matrix(0.316645,-2.33605e-4,-1.91039e-4,0.399231,501.623,139.608)"
   id="g957">
                <path
   d="M 8.106,8.226 404.489,8.457"
   style="fill:none;stroke:#a60700;stroke-width:7.31px"
   id="path955" />
            </g>
            <g
   transform="matrix(0.333187,0,0,0.399235,498.914,130.553)"
   id="g961">
                <path
   d="M 15.832,393.225 H 392.535"
   style="fill:none;stroke:#a60700;stroke-width:6.88px"
   id="path959" />
            </g>
            <g
   transform="matrix(0.586964,0,0,0.717744,495.238,95.1823)"
   id="g971">
                <g
   transform="matrix(1.04582,0,0,1.15298,-1.96397,-17.2717)"
   id="g965">
                    <ellipse
   cx="32.466"
   cy="113.608"
   rx="7.4460001"
   ry="7.2350001"
   id="ellipse963" />
                </g>
                <g
   transform="matrix(1.10929,0,0,1.06834,-4.22279,-9.02322)"
   id="g969">
                    <ellipse
   cx="32.243999"
   cy="114.606"
   rx="4.072"
   ry="4.9330001"
   style="fill:#ffffff"
   id="ellipse967" />
                </g>
            </g>
            <g
   transform="matrix(0.586964,0,0,0.717744,558.243,95.8388)"
   id="g981">
                <g
   transform="matrix(1.04582,0,0,1.15298,-1.96397,-17.2717)"
   id="g975">
                    <ellipse
   cx="32.466"
   cy="113.608"
   rx="7.4460001"
   ry="7.2350001"
   id="ellipse973" />
                </g>
                <g
   transform="matrix(1.10929,0,0,1.06834,-4.22279,-9.02322)"
   id="g979">
                    <ellipse
   cx="32.243999"
   cy="114.606"
   rx="4.072"
   ry="4.9330001"
   style="fill:#ffffff"
   id="ellipse977" />
                </g>
            </g>
            <g
   transform="matrix(0.586964,0,0,0.717744,559.171,171.665)"
   id="g991">
                <g
   transform="matrix(1.04582,0,0,1.15298,-1.96397,-17.2717)"
   id="g985">
                    <ellipse
   cx="32.466"
   cy="113.608"
   rx="7.4460001"
   ry="7.2350001"
   id="ellipse983" />
                </g>
                <g
   transform="matrix(1.10929,0,0,1.06834,-4.22279,-9.02322)"
   id="g989">
                    <ellipse
   cx="32.243999"
   cy="114.606"
   rx="4.072"
   ry="4.9330001"
   style="fill:#ffffff"
   id="ellipse987" />
                </g>
            </g>
            <g
   transform="matrix(0.586964,0,0,0.717744,496.369,171.665)"
   id="g1001">
                <g
   transform="matrix(1.04582,0,0,1.15298,-1.96397,-17.2717)"
   id="g995">
                    <ellipse
   cx="32.466"
   cy="113.608"
   rx="7.4460001"
   ry="7.2350001"
   id="ellipse993" />
                </g>
                <g
   transform="matrix(1.10929,0,0,1.06834,-4.22279,-9.02322)"
   id="g999">
                    <ellipse
   cx="32.243999"
   cy="114.606"
   rx="4.072"
   ry="4.9330001"
   style="fill:#ffffff"
   id="ellipse997" />
                </g>
            </g>
            <g
   transform="matrix(0.400167,0,0,0.670918,500.945,128.706)"
   id="g1005">
                <rect
   x="8.1059999"
   y="8.7370005"
   width="313.64999"
   height="10.473"
   style="fill:#ff8983"
   id="rect1003" />
            </g>
            <g
   transform="matrix(0.398004,0,0,0.670918,500.962,198.896)"
   id="g1009">
                <rect
   x="8.1059999"
   y="8.7370005"
   width="313.64999"
   height="10.473"
   style="fill:#ff8983"
   id="rect1007" />
            </g>
            <g
   transform="matrix(0.398004,0,0,0.670918,500.962,273.703)"
   id="g1013">
                <rect
   x="8.1059999"
   y="8.7370005"
   width="313.64999"
   height="10.473"
   style="fill:#ff8983"
   id="rect1011" />
            </g>
            <g
   transform="matrix(0.326491,0,0,0.407002,501.542,128.348)"
   id="g1017">
                <path
   d="m 200.321,15.573 c 0,0 5.503,381.634 6.555,377.652"
   style="fill:none;stroke:#a60700;stroke-width:6.98px"
   id="path1015" />
            </g>
        </g>
    </g>
<text
   xml:space="preserve"
   style="font-style:normal;font-weight:normal;font-size:185.282px;line-height:1.25;font-family:sans-serif;fill:#000000;fill-opacity:1;stroke:none;stroke-width:4.63207"
   x="956.6427"
   y="227.98087"
   id="text3210"><tspan
     sodipodi:role="line"
     id="tspan3208"
     x="956.6427"
     y="227.98087"
     style="font-style:normal;font-variant:normal;font-weight:normal;font-stretch:normal;font-family:Akaash;-inkscape-font-specification:Akaash;text-align:center;text-anchor:middle;stroke-width:4.63207">App</tspan><tspan
     sodipodi:role="line"
     x="956.6427"
     y="465.25635"
     id="tspan3212"
     style="font-style:normal;font-variant:normal;font-weight:normal;font-stretch:normal;font-family:Akaash;-inkscape-font-specification:Akaash;text-align:center;text-anchor:middle;stroke-width:4.63207">Taquillas</tspan></text></svg>
